<?xml version="1.0" encoding="iso-8859-1"?>
<!-- Uploaded to: SVG Repo, www.svgrepo.com, Generator: SVG Repo Mixer Tools -->
<svg height="800px" width="800px" version="1.1" id="Layer_1" xmlns="http://www.w3.org/2000/svg" xmlns:xlink="http://www.w3.org/1999/xlink" 
	 viewBox="0 0 466.692 466.692" xml:space="preserve">
<path style="fill:#B5FF40;" d="M235.788,203.13c0-101.313,82.125-183.438,183.43-183.438"/>
<path style="fill:#828282;" d="M235.788,222.822c-10.878,0-19.692-8.814-19.692-19.692C216.096,91.12,307.216,0,419.218,0
	c10.878,0,19.692,8.814,19.692,19.692s-8.814,19.692-19.692,19.692c-90.285,0-163.738,73.452-163.738,163.745
	C255.48,214.008,246.658,222.822,235.788,222.822z"/>
<path style="fill:#B5FF40;" d="M230.92,263.554C230.92,364.875,148.795,447,47.474,447"/>
<path style="fill:#828282;" d="M47.474,466.692c-10.878,0-19.692-8.814-19.692-19.692c0-10.878,8.814-19.692,19.692-19.692
	c90.293,0,163.753-73.46,163.753-163.753c0-10.878,8.814-19.692,19.692-19.692s19.692,8.814,19.692,19.692
	C250.612,375.564,159.476,466.692,47.474,466.692z"/>
<path style="fill:#B5FF40;" d="M263.57,235.788c101.305,0,183.43,82.125,183.43,183.43"/>
<path style="fill:#828282;" d="M447,438.91c-10.878,0-19.692-8.814-19.692-19.692c0-90.285-73.452-163.738-163.738-163.738
	c-10.878,0-19.692-8.814-19.692-19.692s8.814-19.692,19.692-19.692c112.002,0,203.122,91.12,203.122,203.122
	C466.692,430.096,457.878,438.91,447,438.91z"/>
<path style="fill:#B5FF40;" d="M203.138,230.904c-101.305,0-183.446-82.125-183.446-183.43"/>
<g>
	<path style="fill:#828282;" d="M203.138,250.596C91.12,250.596,0,159.476,0,47.474c0-10.878,8.814-19.692,19.692-19.692
		s19.692,8.814,19.692,19.692c0,90.285,73.46,163.738,163.753,163.738c10.878,0,19.692,8.814,19.692,19.692
		S214.016,250.596,203.138,250.596z"/>
	<path style="fill:#828282;" d="M147.361,123.683c6.538,6.538,6.546,17.132,0.008,23.67l0,0c-6.538,6.538-17.14,6.538-23.67,0l0,0
		c-6.538-6.53-6.538-17.132,0-23.67l0,0C130.229,117.146,140.831,117.146,147.361,123.683L147.361,123.683z"/>
	<path style="fill:#828282;" d="M343.008,319.323c6.53,6.538,6.53,17.132,0,23.67l0,0c-6.546,6.538-17.148,6.538-23.686,0l0,0
		c-6.53-6.53-6.522-17.132,0.016-23.67l0,0C325.876,312.785,336.463,312.785,343.008,319.323L343.008,319.323z"/>
	<path style="fill:#828282;" d="M123.691,319.346c6.538-6.538,17.132-6.546,23.67-0.008l0,0c6.538,6.538,6.538,17.132,0,23.67l0,0
		c-6.53,6.538-17.132,6.538-23.67,0l0,0C117.153,336.471,117.153,325.876,123.691,319.346L123.691,319.346z"/>
	<path style="fill:#828282;" d="M319.323,123.699c6.538-6.538,17.14-6.538,23.678,0l0,0c6.538,6.538,6.538,17.14,0,23.678l0,0
		c-6.538,6.538-17.14,6.53-23.678-0.008l0,0C312.793,140.832,312.793,130.237,319.323,123.699L319.323,123.699z"/>
</g>
</svg>